<svg width="24" height="24" xmlns="http://www.w3.org/2000/svg">
 <g>
  <title>Layer 1</title>
  <path d="m4.87499,3.81247l10.81252,0l-1.44167,15.06253l-7.92918,0l-1.44167,-15.06253m1.58584,1.50625l1.15334,12.05002l0.72083,0l-0.98754,-10.28771c0.77129,-0.25606 1.77325,-0.33891 2.57338,0.49706c1.1245,1.17488 3.12121,0.51966 3.96459,0.17322l0.21625,-2.4326l-7.64085,0l0,0.00001z" id="svg_1" stroke="null"/>
  <g stroke="null" id="svg_6">
   <path stroke="null" d="m19.21528,17.32534l-1.79169,0l0,1.7649l-0.59723,0l0,-1.7649l-1.79169,0l0,-0.5883l1.79169,0l0,-1.7649l0.59723,0l0,1.7649l1.79169,0l0,0.5883z" id="svg_5"/>
  </g>
 </g>

</svg>